<svg width="116" height="116" viewBox="0 0 116 116" fill="none" xmlns="http://www.w3.org/2000/svg">
<path d="M96.6666 106.333V91.8333C96.6666 78.1627 96.6666 71.3274 92.4195 67.0803C88.1725 62.8333 81.3372 62.8333 67.6666 62.8333L57.9999 72.4999L48.3333 62.8333C34.6625 62.8333 27.8272 62.8333 23.5802 67.0803C19.3333 71.3274 19.3333 78.1627 19.3333 91.8333V106.333" stroke="black" stroke-width="3.5" stroke-linecap="round" stroke-linejoin="round"/>
<path d="M77 63L77 88" stroke="black" stroke-width="3.5" stroke-linecap="round" stroke-linejoin="round"/>
<path d="M81 93C81 95.2091 79.2091 97 77 97C74.7909 97 73 95.2091 73 93C73 90.7909 74.7909 89 77 89C79.2091 89 81 90.7909 81 93Z" stroke="black" stroke-width="2.5"/>
<path d="M41.0834 62.8333V82.1666M41.0834 82.1666C46.4222 82.1666 50.7501 86.4944 50.7501 91.8333V96.6666M41.0834 82.1666C35.7447 82.1666 31.4167 86.4944 31.4167 91.8333V96.6666" stroke="black" stroke-width="3.5" stroke-linecap="round" stroke-linejoin="round"/>
<path d="M57.9999 53.0001C71.3468 53.0001 82.1666 42.1803 82.1666 28.8334C82.1666 15.4865 71.3468 4.66675 57.9999 4.66675C44.653 4.66675 33.8333 15.4865 33.8333 28.8334C33.8333 42.1803 44.653 53.0001 57.9999 53.0001Z" stroke="black" stroke-width="3.5" stroke-linecap="round" stroke-linejoin="round"/>
</svg>
