<svg width="22" height="18" viewBox="0 0 22 18" fill="none" xmlns="http://www.w3.org/2000/svg">
<path d="M2.11111 2.14286L8.77778 9M19.8889 2.14286L13.2222 9M8.77778 9L9.42865 9.66947C10.2965 10.5621 11.7035 10.5621 12.5713 9.66947L13.2222 9M8.77778 9L1.97631 15.9958M13.2222 9L20.0237 15.9958M20.0237 15.9958C20.6269 15.3753 21 14.5182 21 13.5714V3.28571C21 2.02335 20.0051 1 18.7778 1H3.22222C1.99492 1 1 2.02335 1 3.28571V13.5714C1 14.5182 1.3731 15.3753 1.97631 15.9958M20.0237 15.9958C19.4205 16.6162 18.5871 17 17.6667 17H4.33333C3.41286 17 2.57953 16.6162 1.97631 15.9958" stroke="#999999" stroke-width="1.5" stroke-linecap="round"/>
</svg>
