<svg width="116" height="116" viewBox="0 0 116 116" fill="none" xmlns="http://www.w3.org/2000/svg">
<path d="M96.6666 106.334V82.1676C96.6666 73.0538 96.6666 68.497 93.8352 65.6656C91.0039 62.8342 86.447 62.8342 77.3333 62.8342L57.9999 106.334L38.6666 62.8342C29.5528 62.8342 24.9958 62.8342 22.1646 65.6656C19.3333 68.497 19.3333 73.0538 19.3333 82.1676V106.334" stroke="black" stroke-width="3.5" stroke-linecap="round" stroke-linejoin="round"/>
<path d="M58 72.6L51.5 91.5M58 72.6L64.5 91.5M58 72.6L53 63H62.5L58 72.6Z" stroke="black" stroke-width="3" stroke-linecap="round" stroke-linejoin="round"/>
<path d="M57.9999 53.0001C71.3468 53.0001 82.1666 42.1803 82.1666 28.8334C82.1666 15.4865 71.3468 4.66675 57.9999 4.66675C44.653 4.66675 33.8333 15.4865 33.8333 28.8334C33.8333 42.1803 44.653 53.0001 57.9999 53.0001Z" stroke="black" stroke-width="3.5" stroke-linecap="round" stroke-linejoin="round"/>
</svg>
